Coordinates
version=1
nRows=26
nColumns=22
inDegrees=yes

Units are S.I. units (second, meters, Newtons, ...)
If the header above contains a line with 'inDegrees', this indicates whether rotational values are in degrees (yes) or radians (no).

endheader
time	pelvis_tilt	pelvis_list	pelvis_rotation	pelvis_tx	pelvis_ty	pelvis_tz	hip_flexion_r	hip_adduction_r	hip_rotation_r	knee_angle_r	ankle_angle_r	subtalar_angle_r	hip_flexion_l	hip_adduction_l	hip_rotation_l	knee_angle_l	ankle_angle_l	subtalar_angle_l	lumbar_extension	lumbar_bending	lumbar_rotation
      0.01000000	     -1.34736968	      0.37050967	    182.88781228	      0.16282345	      1.08568531	      1.14816750	     -4.80522727	      2.79205910	     -3.49066305	     -7.43415785	     11.80652998	     -3.36593185	     -3.46385369	      0.25914916	     -0.22293996	    -10.89582104	     13.23579343	     -2.71193104	     -1.36060326	     -1.07154863	     -4.31021994
      0.02000000	     -1.34938375	      0.37205120	    182.87262399	      0.16291863	      1.08569967	      1.14819568	     -4.79420493	      2.78932237	     -3.47526235	     -7.44707629	     11.79465285	     -3.35655171	     -3.46612663	      0.26248782	     -0.22401914	    -10.88865420	     13.23038648	     -2.72185972	     -1.36142694	     -1.06562378	     -4.32263024
      0.03000000	     -1.34979662	      0.37552714	    182.85062741	      0.16303084	      1.08571346	      1.14820760	     -4.77905078	      2.78831804	     -3.45327363	     -7.46150216	     11.78441674	     -3.34693849	     -3.46698579	      0.26317195	     -0.23573467	    -10.87958838	     13.22339523	     -2.73449683	     -1.36157235	     -1.06134652	     -4.32899939
      0.04000000	     -1.34115441	      0.38306564	    182.80658433	      0.16314273	      1.08571228	      1.14818992	     -4.75631169	      2.79003063	     -3.39821011	     -7.47027611	     11.77611858	     -3.32757688	     -3.45699888	      0.26059456	     -0.28150861	    -10.87471005	     13.20995313	     -2.77015699	     -1.34819713	     -1.05519264	     -4.30059494
      0.05000000	     -1.34385028	      0.38516616	    182.78851256	      0.16325584	      1.08572249	      1.14823540	     -4.74819793	      2.78636442	     -3.38913762	     -7.47599376	     11.77207199	     -3.32719617	     -3.45766209	      0.26449357	     -0.28679850	    -10.87132379	     13.21158458	     -2.77331014	     -1.34849886	     -1.04934059	     -4.31717599
      0.06000000	     -1.34322117	      0.39022029	    182.76436158	      0.16337893	      1.08573014	      1.14824838	     -4.73644559	      2.78726415	     -3.36091728	     -7.48194402	     11.76309317	     -3.32770842	     -3.45463668	      0.26323489	     -0.30790892	    -10.86506437	     13.21150758	     -2.77997982	     -1.34832607	     -1.04714321	     -4.33480880
      0.07000000	     -1.34075624	      0.39731518	    182.73252186	      0.16348899	      1.08573243	      1.14826601	     -4.72879509	      2.78876216	     -3.32455052	     -7.47569993	     11.75244501	     -3.33042981	     -3.44824851	      0.26119303	     -0.33848910	    -10.86556684	     13.21063941	     -2.78824972	     -1.34298695	     -1.03920787	     -4.34396370
      0.08000000	     -1.34261464	      0.40163581	    182.71239777	      0.16359443	      1.08573724	      1.14829970	     -4.72660541	      2.78816094	     -3.32509379	     -7.46934357	     11.75192107	     -3.33083440	     -3.44555525	      0.26239643	     -0.33812145	    -10.86770239	     13.21052744	     -2.78884984	     -1.34429289	     -1.03874453	     -4.34922449
      0.09000000	     -1.33898567	      0.41704133	    182.66767402	      0.16368507	      1.08573611	      1.14829864	     -4.72879582	      2.79843543	     -3.25413618	     -7.44407664	     11.72749509	     -3.33936593	     -3.43211128	      0.25093161	     -0.39845606	    -10.88175864	     13.21347507	     -2.80242097	     -1.33543760	     -1.02239886	     -4.34594032
      0.10000000	     -1.33973184	      0.42166100	    182.64676559	      0.16379487	      1.08574112	      1.14832402	     -4.72543787	      2.79852917	     -3.25597143	     -7.43738662	     11.72720757	     -3.33973339	     -3.42892013	      0.25154184	     -0.39786209	    -10.88121270	     13.21392321	     -2.80276895	     -1.34007809	     -1.02366481	     -4.35333884
      0.11000000	     -1.34109660	      0.43823235	    182.60141652	      0.16387332	      1.08574699	      1.14831989	     -4.73432586	      2.81066959	     -3.19173196	     -7.41074090	     11.70222613	     -3.34748726	     -3.42285836	      0.23893289	     -0.45641552	    -10.89239751	     13.21996929	     -2.81282261	     -1.33781591	     -1.00638480	     -4.35547485
      0.12000000	     -1.34143913	      0.44338062	    182.57951778	      0.16397474	      1.08575182	      1.14833852	     -4.73141191	      2.81117023	     -3.19390506	     -7.40359096	     11.70196576	     -3.34772232	     -3.41950457	      0.23845054	     -0.45551630	    -10.89188061	     13.22022599	     -2.81305045	     -1.34322466	     -1.00908629	     -4.36213688
      0.13000000	     -1.34730702	      0.46402627	    182.52240129	      0.16404543	      1.08576728	      1.14831428	     -4.74526321	      2.82717197	     -3.11490141	     -7.37556994	     11.67132513	     -3.35303265	     -3.42243450	      0.22157743	     -0.52864763	    -10.89741937	     13.22424231	     -2.82173897	     -1.34773793	     -0.98765029	     -4.34651394
      0.14000000	     -1.35527019	      0.47664567	    182.47548436	      0.16412023	      1.08578611	      1.14829868	     -4.75251260	      2.83490652	     -3.07106320	     -7.36511746	     11.65846906	     -3.35767802	     -3.43385190	      0.21343394	     -0.57076730	    -10.89015851	     13.22668750	     -2.82601145	     -1.35835318	     -0.97957247	     -4.33251071
      0.15000000	     -1.35727008	      0.48278036	    182.44620643	      0.16419311	      1.08579623	      1.14832280	     -4.75113768	      2.83519156	     -3.06095960	     -7.36030969	     11.65370242	     -3.35787504	     -3.43692839	      0.21366176	     -0.58239691	    -10.88596888	     13.22660491	     -2.82671245	     -1.36161845	     -0.97700865	     -4.34516258
      0.16000000	     -1.36693669	      0.50079481	    182.38823382	      0.16426057	      1.08582274	      1.14827159	     -4.76264771	      2.84985017	     -2.98603136	     -7.34479020	     11.63160291	     -3.35723444	     -3.45181650	      0.19777449	     -0.65227675	    -10.87641781	     13.22228227	     -2.83090279	     -1.37497589	     -0.96773034	     -4.31658390
      0.17000000	     -1.37579779	      0.51103432	    182.34157681	      0.16432353	      1.08584552	      1.14825320	     -4.76717857	      2.85502030	     -2.94303771	     -7.34227784	     11.62323037	     -3.35790690	     -3.46954548	      0.19206070	     -0.69403545	    -10.86092481	     13.22282503	     -2.83266231	     -1.38675989	     -0.96485863	     -4.30915161
      0.18000000	     -1.37591046	      0.51733149	    182.32015604	      0.16440116	      1.08585336	      1.14826160	     -4.76291717	      2.85773648	     -2.94415350	     -7.33780123	     11.62278322	     -3.35781030	     -3.46874399	      0.18990746	     -0.69423102	    -10.85859335	     13.22296582	     -2.83272391	     -1.39168099	     -0.97286930	     -4.31881483
      0.19000000	     -1.37971897	      0.53249371	    182.25508444	      0.16444613	      1.08587131	      1.14821932	     -4.75852034	      2.86647867	     -2.86525886	     -7.34325159	     11.60699233	     -3.35579794	     -3.48741761	      0.17921332	     -0.77272553	    -10.83407654	     13.21384000	     -2.83399502	     -1.39355548	     -0.96238541	     -4.31983550
      0.20000000	     -1.37932169	      0.53831162	    182.22356259	      0.16452401	      1.08587931	      1.14822171	     -4.74679179	      2.86727074	     -2.84873089	     -7.35145867	     11.60211242	     -3.35562027	     -3.49398239	      0.17866723	     -0.79160855	    -10.81708320	     13.21857732	     -2.83472691	     -1.39842889	     -0.96689099	     -4.34811534
      0.21000000	     -1.37552219	      0.54896493	    182.16331209	      0.16459126	      1.08588292	      1.14817770	     -4.73201249	      2.87143301	     -2.78566921	     -7.35868745	     11.59967021	     -3.35407768	     -3.49507095	      0.17287805	     -0.85766483	    -10.80883005	     13.21399083	     -2.83671458	     -1.39609309	     -0.96599143	     -4.34513056
      0.22000000	     -1.37400758	      0.55492215	    182.13040630	      0.16466582	      1.08588536	      1.14816997	     -4.71717858	      2.87236247	     -2.76840116	     -7.37042199	     11.59478636	     -3.35364182	     -3.49867671	      0.17179465	     -0.87593345	    -10.79670572	     13.21769345	     -2.83775294	     -1.39867251	     -0.97286914	     -4.37966193
      0.23000000	     -1.36270541	      0.56470914	    182.07093754	      0.16474577	      1.08587248	      1.14812195	     -4.69125081	      2.87534522	     -2.70678369	     -7.38222570	     11.59587036	     -3.35062056	     -3.48271590	      0.16677310	     -0.94455817	    -10.80438034	     13.21722964	     -2.84226221	     -1.38901393	     -0.97487990	     -4.38340418
      0.24000000	     -1.36136522	      0.57108804	    182.03643929	      0.16482726	      1.08587203	      1.14810606	     -4.67520665	      2.87670984	     -2.68761371	     -7.39664543	     11.59006800	     -3.34968234	     -3.48193218	      0.16528422	     -0.96138585	    -10.80037923	     13.22162412	     -2.84372247	     -1.39285154	     -0.98219319	     -4.41802897
      0.25000000	     -1.34981909	      0.58346196	    181.97923483	      0.16491834	      1.08585269	      1.14805487	     -4.64914320	      2.88253004	     -2.62905238	     -7.40737937	     11.58980046	     -3.34493180	     -3.45485474	      0.15674579	     -1.03126639	    -10.82713375	     13.23061062	     -2.84984291	     -1.38453524	     -0.98306728	     -4.42033075
      0.26000000	     -1.34976993	      0.59084511	    181.94148357	      0.16500768	      1.08585119	      1.14802941	     -4.63301243	      2.88485164	     -2.60372334	     -7.42455419	     11.58295744	     -3.34313281	     -3.44816885	      0.15379309	     -1.04960496	    -10.83670929	     13.23669424	     -2.85179763	     -1.39111236	     -0.98973072	     -4.44869906
